<svg xmlns="http://www.w3.org/2000/svg" viewBox="0 0 64 64" role="img" aria-label="Kingshot ODY BearTrap" fill="none">
  <defs>
    <linearGradient id="shieldGrad" x1="32" y1="0" x2="32" y2="64" gradientUnits="userSpaceOnUse">
      <stop offset="0" stop-color="#f5a542"/>
      <stop offset="1" stop-color="#d0792a"/>
    </linearGradient>
  </defs>
  <path d="M12 6h40c2.2 0 4 1.8 4 4v24c0 8.8-5 16.8-12.9 21.1L32 62l-11.1-6.9C13 50.8 8 42.8 8 34V10c0-2.2 1.8-4 4-4Z" fill="url(#shieldGrad)" stroke="#c56a20" stroke-width="2"/>
  <path d="M32 16c-2 3.2-2.7 6.7-2.7 6.7s-1.8-1.5-3.3-1.5c-2.2 0-3.7 1.6-3.7 3.6 0 1.2.5 2.3 1.3 3.2 2.6 2.9 8.4 5.6 8.4 5.6s5.8-2.7 8.4-5.6c.8-.9 1.3-2 1.3-3.2 0-2-1.5-3.6-3.7-3.6-1.5 0-3.3 1.5-3.3 1.5S34 19.2 32 16Z" fill="#fdfbf6"/>
</svg>
